<svg height="512" viewBox="0 0 64 64" width="512" xmlns="http://www.w3.org/2000/svg"><g id="Flat_Tire-tire-service-car" data-name="Flat Tire-tire-service-car"><path d="m30 15a19 19 0 1 0 19 19 19.017 19.017 0 0 0 -19-19zm0 36a17 17 0 1 1 17-17 17.024 17.024 0 0 1 -17 17z"/><path d="m30 19a15 15 0 1 0 15 15 15.018 15.018 0 0 0 -15-15zm11.57 9.1a12.675 12.675 0 0 1 .79 1.9h-2.7zm-7.57-6.46a12.675 12.675 0 0 1 1.9.79l-1.9 1.91zm-8 0v2.7l-1.9-1.91a12.675 12.675 0 0 1 1.9-.79zm-7.57 6.46 1.91 1.9h-2.7a12.675 12.675 0 0 1 .79-1.9zm0 11.8a12.675 12.675 0 0 1 -.79-1.9h2.7zm7.57 6.46a11.857 11.857 0 0 1 -1.91-.8l1.91-1.91zm8 0v-2.71l1.91 1.91a11.857 11.857 0 0 1 -1.91.8zm7.57-6.46-1.91-1.9h2.7a12.675 12.675 0 0 1 -.79 1.9zm-4.33-3.9a.987.987 0 0 0 -.92.62 1 1 0 0 0 .21 1.09l3.96 3.94a13.1 13.1 0 0 1 -2.83 2.83l-3.95-3.95a1 1 0 0 0 -1.09-.21.987.987 0 0 0 -.62.92v5.59a11.85 11.85 0 0 1 -4 0v-5.59a.987.987 0 0 0 -.62-.92 1 1 0 0 0 -1.09.21l-3.95 3.95a13.1 13.1 0 0 1 -2.83-2.83l3.96-3.94a1 1 0 0 0 .21-1.09.987.987 0 0 0 -.92-.62h-5.59a11.85 11.85 0 0 1 0-4h5.59a.987.987 0 0 0 .92-.62 1 1 0 0 0 -.21-1.09l-3.96-3.94a13.188 13.188 0 0 1 2.84-2.84l3.94 3.96a1.007 1.007 0 0 0 .71.29 1.015 1.015 0 0 0 1-1v-5.59a11.85 11.85 0 0 1 4 0v5.59a1.015 1.015 0 0 0 1 1 1.007 1.007 0 0 0 .71-.29l3.94-3.96a13.188 13.188 0 0 1 2.84 2.84l-3.96 3.94a1 1 0 0 0 -.21 1.09.987.987 0 0 0 .92.62h5.59a11.85 11.85 0 0 1 0 4z"/><path d="m47.31 56.01a27.971 27.971 0 0 0 7.13-35.65l4.42.63a.66.66 0 0 0 .14.01 1 1 0 0 0 .8-1.6l-2.22-2.96 3.79-1.51a1 1 0 0 0 .63-.89.985.985 0 0 0 -.55-.93l-3.15-1.58 3.61-8.12a1 1 0 0 0 -1.36-1.3l-7.21 3.6-1.51-2.26a.983.983 0 0 0 -.89-.45.971.971 0 0 0 -.83.55l-1.56 3.11-3.1-1.55a1.005 1.005 0 0 0 -1.44 1.05l.67 4.01a27.995 27.995 0 0 0 -34.9 43.2 7.03 7.03 0 0 0 -4.78 6.63h-3v2h60v-2h-10.1a5.013 5.013 0 0 0 -4.59-3.99zm1.24-47.12a.993.993 0 0 0 1.34-.44l1.23-2.46 1.05 1.56a1 1 0 0 0 1.28.34l5.5-2.75-2.86 6.45a.989.989 0 0 0 .46 1.3l2.01 1.01-2.93 1.17a1 1 0 0 0 -.59.66.97.97 0 0 0 .16.87l1.55 2.07-3.7-.53c-.37-.54-.75-1.08-1.17-1.59a1 1 0 0 0 -.57-.49 1.017 1.017 0 0 0 -1.25.61l-.74 1.84-.34-1.71a.975.975 0 0 0 -.74-.77l-1.66-.41 1.73-1.04a1.007 1.007 0 0 0 .49-.77.994.994 0 0 0 -.34-.84c-.48-.42-.98-.83-1.49-1.21l-.66-3.99zm-41.55 51.11a5.01 5.01 0 0 1 4.89-4.99 1 1 0 0 0 .92-.65.994.994 0 0 0 -.27-1.09 26.05 26.05 0 0 1 -4.53-5.42l1.71-.98-1-1.74-1.71.99a27.223 27.223 0 0 1 -1.84-4.43l1.91-.51-.52-1.93-1.9.51a25.339 25.339 0 0 1 -.63-4.76h1.97v-2h-1.97a25.726 25.726 0 0 1 .62-4.76l1.91.51.52-1.93-1.92-.51a25.729 25.729 0 0 1 1.85-4.43l1.71.99 1-1.74-1.71-.98a26.433 26.433 0 0 1 2.92-3.8l1.39 1.39 1.42-1.42-1.39-1.39a26.433 26.433 0 0 1 3.8-2.92l.98 1.71 1.74-1-.99-1.71a25.729 25.729 0 0 1 4.43-1.85l.51 1.92 1.93-.52-.51-1.91a25.726 25.726 0 0 1 4.76-.62v1.97h2v-1.96a25.955 25.955 0 0 1 4.75.62l-.5 1.9 1.93.52.5-1.9a25.833 25.833 0 0 1 8.4 4.41l-2.59 1.55a1 1 0 0 0 .27 1.83l3.38.85.88 4.38a1 1 0 0 0 1.91.17l1.33-3.33c.21.3.4.61.6.92v.03h.03a26.008 26.008 0 0 1 2.96 6.32l-1.93.51.52 1.93 1.92-.51a25.934 25.934 0 0 1 .6 4.76h-1.96v2h1.97a25.95 25.95 0 0 1 -.62 4.76l-1.91-.51-.52 1.93 1.92.51a25.3 25.3 0 0 1 -1.83 4.44l-1.73-1-1 1.74 1.73.99a25.066 25.066 0 0 1 -2.93 3.81l-1.4-1.41-1.42 1.42 1.41 1.4a26.134 26.134 0 0 1 -4.05 3.07.984.984 0 0 0 -.44 1.12 1 1 0 0 0 .96.73h2.86a3.01 3.01 0 0 1 2.82 2z"/><path d="m21 57h2v2h-2z"/><path d="m26 57h6v2h-6z"/><path d="m34 54h4v2h-4z"/><path d="m39 57h2v2h-2z"/><path d="m10 57h2v2h-2z"/><path d="m15 54h3v2h-3z"/></g></svg>