<?xml version="1.0" encoding="iso-8859-1"?>
<!-- Generator: Adobe Illustrator 19.0.0, SVG Export Plug-In . SVG Version: 6.00 Build 0)  -->
<svg version="1.1" id="Capa_1" xmlns="http://www.w3.org/2000/svg" xmlns:xlink="http://www.w3.org/1999/xlink" x="0px" y="0px"
	 viewBox="0 0 512 512" style="enable-background:new 0 0 512 512;" xml:space="preserve">
<g>
	<g>
		<path d="M256,60c-5.52,0-10,4.48-10,10s4.48,10,10,10s10-4.48,10-10S261.52,60,256,60z"/>
	</g>
</g>
<g>
	<g>
		<path d="M256,0C118.451,0,0,117.307,0,256c0,137.902,117.693,256,256,256c137.839,0,256-117.707,256-256
			C512,117.349,393.591,0,256,0z M463.1,366.559l-5.568-3.217c-4.782-2.764-10.898-1.125-13.661,3.657
			c-2.763,4.783-1.125,10.899,3.657,13.662l5.181,2.993c-18.146,27.308-41.748,50.911-69.057,69.057l-2.993-5.181
			c-2.762-4.781-8.877-6.421-13.661-3.657c-4.782,2.762-6.42,8.879-3.657,13.661l3.217,5.568
			C335.214,480.377,300.81,490.183,266,491.764V482c0-5.523-4.478-10-10-10c-5.522,0-10,4.477-10,10v9.762
			c-36.041-1.591-70.291-11.713-100.728-28.361l3.39-5.872c2.761-4.784,1.121-10.899-3.662-13.66
			c-4.786-2.761-10.9-1.122-13.66,3.663l-3.199,5.542c-27.443-18.124-51.09-41.77-69.213-69.213l5.542-3.199
			c4.783-2.761,6.423-8.877,3.661-13.66c-2.761-4.783-8.876-6.423-13.659-3.661L48.6,366.73
			C31.95,336.292,21.828,302.041,20.238,266H30c5.522,0,10-4.477,10-10s-4.478-10-10-10h-9.765
			c1.602-35.287,11.635-69.652,28.637-100.572l5.598,3.232c4.76,2.749,10.887,1.144,13.66-3.66c2.762-4.783,1.123-10.899-3.66-13.66
			l-5.245-3.028c17.845-26.913,41.253-50.562,69.112-69.041l3.004,5.201c2.772,4.798,8.894,6.41,13.661,3.657
			c4.782-2.762,6.42-8.879,3.657-13.661l-3.217-5.568C176.786,31.623,211.19,21.817,246,20.236V30c0,5.523,4.478,10,10,10
			c5.522,0,10-4.477,10-10v-9.764c34.809,1.581,69.214,11.387,100.557,28.664l-3.217,5.568c-2.763,4.782-1.125,10.899,3.657,13.661
			c4.764,2.752,10.889,1.142,13.661-3.657l3.004-5.201c27.858,18.479,51.265,42.127,69.111,69.04l-5.246,3.03
			c-4.782,2.762-6.42,8.878-3.657,13.661c2.771,4.798,8.893,6.411,13.661,3.658l5.595-3.232
			c17.003,30.92,27.035,65.285,28.638,100.573H482c-5.522,0-10,4.477-10,10c0,5.523,4.478,10,10,10h9.764
			C490.183,300.811,480.377,335.216,463.1,366.559z"/>
	</g>
</g>
<g>
	<g>
		<path d="M297.968,64.667c-5.386-1.218-10.742,2.159-11.961,7.546c-1.22,5.386,2.158,10.741,7.545,11.96
			C371.187,101.747,432,177.222,432,256c0,5.523,4.478,10,10,10c5.522,0,10-4.477,10-10C452,165.807,382.794,83.868,297.968,64.667z
			"/>
	</g>
</g>
<g>
	<g>
		<path d="M257,106.011C173.549,105.465,106,173.168,106,256c0,82.82,67.258,150,150,150c82.87,0,150-67.369,150-150
			C406,173.799,339.498,106.55,257,106.011z M350.075,166.38l-49.033,28.602c-4.519,2.635-8.517,0.901-10.024,0.035
			c-1.509-0.867-5.018-3.446-5.018-8.667v-56.854C310.472,135.282,332.642,148.043,350.075,166.38z M226,129.496v56.854
			c0,5.221-3.509,7.8-5.018,8.667c-1.51,0.867-5.507,2.599-10.023-0.034l-49.035-28.603
			C179.356,148.044,201.528,135.281,226,129.496z M126,256c0-12.95,1.889-25.624,5.613-37.824l50.027,29.182
			c4.479,2.613,4.963,6.915,4.963,8.643c0,1.728-0.483,6.029-4.961,8.642l-50.029,29.182C127.889,281.626,126,268.951,126,256z
			 M226,382.504c-24.472-5.786-46.642-18.547-64.075-36.884l49.033-28.602c4.519-2.635,8.516-0.902,10.024-0.035
			c1.509,0.867,5.018,3.446,5.018,8.667V382.504z M286,382.504V325.65c0-5.221,3.509-7.8,5.018-8.667
			c1.51-0.867,5.508-2.599,10.023,0.034l49.035,28.603C332.645,363.955,310.473,376.717,286,382.504z M362.864,329.924
			l-51.745-30.184c-9.396-5.48-20.635-5.517-30.063-0.101C271.628,305.056,266,314.779,266,325.65v59.956
			c-6.646,0.505-13.356,0.505-20,0V325.65c0-10.871-5.628-20.594-15.055-26.009c-9.43-5.417-20.668-5.379-30.064,0.101
			l-51.744,30.184c-3.818-5.496-7.2-11.266-10.118-17.268l52.701-30.74c9.319-5.438,14.883-15.126,14.883-25.917
			c0-10.791-5.563-20.479-14.885-25.917l-52.7-30.74c2.918-6.002,6.299-11.772,10.118-17.27l51.745,30.184
			c4.728,2.757,9.922,4.136,15.117,4.136c5.13,0,10.262-1.345,14.946-4.036C240.372,206.944,246,197.221,246,186.35v-59.958
			c3.329-0.254,6.67-0.392,10-0.392s6.672,0.138,10,0.392v59.958c0,10.871,5.628,20.594,15.055,26.009
			c4.685,2.691,9.816,4.036,14.946,4.036c5.195,0,10.39-1.379,15.118-4.137l51.744-30.184c3.818,5.496,7.2,11.266,10.118,17.268
			l-52.701,30.74c-9.319,5.438-14.883,15.126-14.883,25.917s5.563,20.479,14.885,25.917l52.7,30.74
			C370.064,318.657,366.683,324.427,362.864,329.924z M330.36,264.642c-4.479-2.613-4.963-6.915-4.963-8.643
			c0-1.728,0.483-6.029,4.961-8.642l50.029-29.181C384.111,230.374,386,243.049,386,256c0,12.95-1.889,25.624-5.613,37.824
			L330.36,264.642z"/>
	</g>
</g>
<g>
	<g>
		<path d="M256,226c-16.542,0-30,13.458-30,30s13.458,30,30,30s30-13.458,30-30S272.542,226,256,226z M256,266
			c-5.514,0-10-4.486-10-10c0-5.514,4.486-10,10-10c5.514,0,10,4.486,10,10C266,261.514,261.514,266,256,266z"/>
	</g>
</g>
<g>
</g>
<g>
</g>
<g>
</g>
<g>
</g>
<g>
</g>
<g>
</g>
<g>
</g>
<g>
</g>
<g>
</g>
<g>
</g>
<g>
</g>
<g>
</g>
<g>
</g>
<g>
</g>
<g>
</g>
</svg>
