<?xml version="1.0" encoding="iso-8859-1"?>
<!-- Generator: Adobe Illustrator 19.0.0, SVG Export Plug-In . SVG Version: 6.00 Build 0)  -->
<svg version="1.1" id="Capa_1" xmlns="http://www.w3.org/2000/svg" xmlns:xlink="http://www.w3.org/1999/xlink" x="0px" y="0px"
	 viewBox="0 0 481.007 481.007" style="enable-background:new 0 0 481.007 481.007;" xml:space="preserve">
<g>
	<g>
		<path d="M176.983,280.569c-13.255,0-24,10.745-24,24s10.745,24,24,24s24-10.745,24-24S190.238,280.569,176.983,280.569z
			 M176.983,312.569c-4.418,0-8-3.582-8-8s3.582-8,8-8s8,3.582,8,8S181.402,312.569,176.983,312.569z"/>
	</g>
</g>
<g>
	<g>
		<rect x="168.983" y="248.569" width="16" height="16"/>
	</g>
</g>
<g>
	<g>
		<rect x="120.983" y="296.569" width="16" height="16"/>
	</g>
</g>
<g>
	<g>
		<rect x="216.983" y="296.569" width="16" height="16"/>
	</g>
</g>
<g>
	<g>
		<rect x="168.983" y="344.569" width="16" height="16"/>
	</g>
</g>
<g>
	<g>
		<path d="M430.245,51.315c-24.99-24.997-65.512-25.003-90.51-0.014c-24.997,24.99-25.003,65.512-0.014,90.51
			c0.005,0.005,0.009,0.009,0.014,0.014l11.312-11.32c-18.76-18.699-18.81-49.065-0.111-67.826
			c16.562-16.616,42.714-18.812,61.815-5.19l-23.68,23.68c-1.33-0.379-2.705-0.581-4.088-0.6c-8.837,0-16,7.163-16,16
			s7.163,16,16,16s16-7.163,16-16c-0.019-1.383-0.221-2.758-0.6-4.088l23.68-23.68c13.618,19.055,11.441,45.167-5.144,61.704
			l11.312,11.32C455.229,116.835,455.235,76.313,430.245,51.315z"/>
	</g>
</g>
<g>
	<g>
		<path d="M477.935,72.457C464.68,21.122,412.319-9.749,360.983,3.506c-51.336,13.255-82.206,65.616-68.952,116.952
			c8.731,33.815,35.137,60.221,68.952,68.952v75.16c0,4.418,3.582,8,8,8h8v164c0,15.464-12.536,28-28,28c-15.464,0-28-12.536-28-28
			v-30.992c56.09-79.759,36.903-189.887-42.856-245.977c-79.759-56.09-189.887-36.903-245.977,42.856S-4.753,392.343,75.007,448.433
			c71.785,50.482,169.752,40.576,229.977-23.256v11.392c0,24.301,19.699,44,44,44s44-19.699,44-44v-164h8c4.418,0,8-3.582,8-8v-48
			h24v8h16v-32h-16v8h-24v-11.16C460.319,176.154,491.19,123.793,477.935,72.457z M317.847,380.353
			c-4.362-10.947-12.911-19.701-23.752-24.32c3.681-8.281,6.463-16.933,8.296-25.808v-0.064c0.472-2.336,0.72-4.72,1.064-7.08
			c0.272-1.864,0.648-3.68,0.8-5.6c0.485-4.283,0.728-8.587,0.728-12.912c0-4.312-0.224-8.64-0.656-12.944
			c-0.2-1.968-0.592-3.872-0.88-5.808c-0.328-2.28-0.568-4.576-1.024-6.832v-0.064c-3.271-15.882-9.546-30.993-18.488-44.52
			c-0.072-0.128-0.088-0.272-0.168-0.392c-0.08-0.12-0.264-0.336-0.384-0.52c-1.2-1.792-2.544-3.472-3.832-5.2
			c-1.288-1.728-2.4-3.424-3.768-5.04c-0.512-0.616-1.088-1.168-1.6-1.776c-4.166-4.87-8.696-9.417-13.552-13.6
			c-0.8-0.688-1.512-1.44-2.32-2.104c-1.472-1.216-3.072-2.296-4.608-3.448c-1.872-1.408-3.712-2.864-5.664-4.168
			c-0.16-0.112-0.304-0.24-0.472-0.344c-0.168-0.104-0.24-0.088-0.344-0.152c-13.561-8.964-28.714-15.245-44.64-18.504
			c-1.336-0.272-2.696-0.384-4.048-0.608c-2.864-0.488-5.728-1.016-8.656-1.304c-0.736-0.08-1.48-0.056-2.224-0.112
			c-3.528-0.312-7.072-0.56-10.672-0.56c-3.6,0-7.144,0.248-10.664,0.544c-0.744,0.056-1.488,0-2.224,0.112
			c-2.928,0.288-5.792,0.8-8.656,1.304c-1.352,0.224-2.712,0.336-4.048,0.608c-15.904,3.269-31.035,9.553-44.576,18.512
			c-0.112,0.064-0.24,0.08-0.344,0.152c-0.104,0.072-0.312,0.232-0.472,0.344c-1.952,1.304-3.792,2.76-5.664,4.168
			c-1.536,1.152-3.136,2.232-4.608,3.448c-0.8,0.664-1.536,1.416-2.32,2.104c-4.856,4.183-9.386,8.73-13.552,13.6
			c-0.52,0.608-1.096,1.16-1.6,1.776c-1.328,1.6-2.512,3.36-3.768,5.04c-1.256,1.68-2.632,3.408-3.832,5.2
			c-0.12,0.184-0.264,0.344-0.384,0.52c-0.12,0.176-0.096,0.264-0.168,0.392c-8.942,13.527-15.217,28.638-18.488,44.52v0.064
			c-0.456,2.256-0.696,4.552-1.024,6.832c-0.288,1.936-0.68,3.84-0.88,5.808c-0.504,4.312-0.728,8.64-0.728,12.952
			s0.224,8.64,0.656,12.944c0.192,1.888,0.568,3.704,0.8,5.6c0.344,2.4,0.592,4.744,1.064,7.08v0.064
			c3.265,15.88,9.538,30.989,18.48,44.512c0.072,0.128,0.088,0.272,0.168,0.392c0.08,0.12,0.264,0.336,0.384,0.52
			c1.2,1.792,2.544,3.472,3.832,5.2c1.288,1.728,2.4,3.424,3.768,5.04c0.512,0.616,1.088,1.168,1.6,1.776
			c4.166,4.87,8.696,9.417,13.552,13.6c0.8,0.688,1.512,1.44,2.32,2.104c1.472,1.216,3.072,2.296,4.608,3.448
			c1.872,1.408,3.712,2.864,5.664,4.168c0.16,0.112,0.304,0.24,0.472,0.344c0.168,0.104,0.232,0.088,0.344,0.152
			c13.578,8.958,28.748,15.229,44.688,18.472c1.6,0.312,3.2,0.456,4.744,0.712c2.624,0.44,5.24,0.928,7.92,1.2
			c8.596,0.875,17.26,0.875,25.856,0c2.68-0.272,5.296-0.76,7.92-1.2c1.6-0.256,3.2-0.4,4.744-0.712
			c15.902-3.267,31.031-9.551,44.568-18.512c0.112-0.064,0.248-0.08,0.352-0.152s0.312-0.232,0.472-0.344
			c1.952-1.304,3.792-2.76,5.664-4.168c1.536-1.152,3.136-2.232,4.608-3.448c0.8-0.664,1.536-1.416,2.32-2.104
			c4.856-4.183,9.386-8.73,13.552-13.6c0.52-0.608,1.096-1.16,1.6-1.776c1.328-1.6,2.512-3.36,3.768-5.04
			c1.256-1.68,2.632-3.408,3.832-5.2c0.12-0.184,0.264-0.344,0.384-0.52c0.12-0.176,0.096-0.264,0.168-0.392
			c0.936-1.416,1.776-2.904,2.656-4.368c11.045,3.997,18.421,14.462,18.472,26.208v3.592c-30.098,40.483-77.555,64.362-128,64.408
			c-88.436,0.07-160.185-71.565-160.255-160.001c-0.07-88.436,71.565-160.185,160.001-160.255s160.185,71.565,160.255,160.001
			C337.006,330.855,330.429,356.984,317.847,380.353z M254.231,336.569h30.032c-1.667,5.504-3.761,10.87-6.264,16.048
			c-0.344-0.008-0.672-0.048-1.016-0.048c-2.092,0.015-4.18,0.181-6.248,0.496L254.231,336.569z M266.559,371.513
			c-0.376,0.512-0.752,1.024-1.136,1.52c-2.726,3.564-5.664,6.959-8.8,10.168v0l-0.992,0.992c-1.712,1.688-3.632,3.144-5.448,4.712
			c2.281-8.061,8.052-14.677,15.728-18.032L266.559,371.513z M234.919,320.569c-4.418,0.001-7.999,3.583-7.998,8.002
			c0,2.121,0.843,4.154,2.342,5.654l24.84,24.8c-9.519,5.819-16.48,15.03-19.48,25.776l-28-28c-3.133-3.115-8.199-3.1-11.314,0.034
			c-1.499,1.508-2.337,3.552-2.326,5.678v52.8c-0.992,0.12-1.968,0.312-2.968,0.456c-0.968,0.112-1.936,0.224-2.912,0.312
			c-3.256,0.296-6.536,0.488-9.864,0.496h-0.512c-3.328,0-6.608-0.2-9.864-0.496c-0.976-0.088-1.944-0.2-2.912-0.312
			s-1.976-0.312-2.968-0.456v-52.8c-0.001-4.418-3.583-7.999-8.002-7.998c-2.121,0-4.154,0.843-5.654,2.342l-37.288,37.312
			c-0.488-0.368-0.984-0.72-1.464-1.096c-3.59-2.742-7.009-5.699-10.24-8.856l-0.992-0.992c-3.136-3.209-6.074-6.604-8.8-10.168
			c-0.384-0.496-0.8-1.008-1.136-1.52l37.296-37.288c3.137-3.111,3.158-8.177,0.046-11.314c-1.508-1.52-3.562-2.372-5.702-2.366
			h-52.8c-0.144-1-0.344-1.976-0.456-2.976s-0.224-1.92-0.312-2.88c-0.288-3.352-0.496-6.72-0.496-10.144s0.208-6.792,0.512-10.136
			c0.088-0.968,0.2-1.928,0.312-2.888c0.112-0.96,0.312-1.984,0.456-2.976h52.8c4.418-0.001,7.999-3.583,7.998-8.002
			c0-2.121-0.843-4.154-2.342-5.654l-37.336-37.288c0.376-0.512,0.752-1.024,1.136-1.52c2.726-3.564,5.664-6.959,8.8-10.168
			l0.992-0.992c3.231-3.157,6.65-6.114,10.24-8.856c0.48-0.376,0.976-0.728,1.464-1.096l37.288,37.288
			c3.111,3.137,8.177,3.158,11.314,0.047c1.52-1.508,2.372-3.562,2.366-5.703v-52.8c0.992-0.144,1.968-0.336,2.968-0.456
			s1.936-0.224,2.912-0.312c3.256-0.296,6.536-0.488,9.864-0.496h0.512c3.328,0,6.608,0.2,9.864,0.496
			c0.976,0.088,1.944,0.2,2.912,0.312c0.968,0.112,1.976,0.312,2.968,0.456v52.8c0.001,4.418,3.583,7.999,8.002,7.998
			c2.121,0,4.154-0.843,5.654-2.342l37.288-37.312c0.488,0.368,0.984,0.72,1.464,1.096c3.59,2.742,7.009,5.699,10.24,8.856
			l0.992,0.992c3.136,3.209,6.074,6.604,8.8,10.168c0.384,0.496,0.76,1.008,1.136,1.52l-37.296,37.288
			c-3.137,3.111-3.158,8.177-0.046,11.314c1.508,1.52,3.562,2.372,5.703,2.366h52.8c0.144,0.992,0.344,1.976,0.456,2.976
			s0.224,1.92,0.312,2.888c0.304,3.344,0.512,6.712,0.512,10.136c0,3.424-0.208,6.792-0.512,10.144c-0.088,0.96-0.2,1.92-0.312,2.88
			c-0.112,0.96-0.312,1.976-0.456,2.976H234.919z M230.231,403.073c-6.759,3.656-13.88,6.597-21.248,8.776v-30.024L230.231,403.073z
			 M144.983,381.825v30.024c-7.363-2.178-14.478-5.116-21.232-8.768L144.983,381.825z M78.479,357.817
			c-3.654-6.759-6.595-13.88-8.776-21.248h30.032L78.479,357.817z M69.703,272.569c2.181-7.368,5.122-14.489,8.776-21.248
			l21.256,21.248H69.703z M123.735,206.065c6.759-3.655,13.88-6.597,21.248-8.776v30.024L123.735,206.065z M208.983,227.313v-30.024
			c7.368,2.179,14.489,5.121,21.248,8.776L208.983,227.313z M275.487,251.321c3.654,6.759,6.595,13.88,8.776,21.248h-30.032
			L275.487,251.321z M392.983,256.569h-16v-16h16V256.569z M392.983,224.569h-16v-32h16V224.569z M384.983,176.569
			c-44.163-0.049-79.951-35.837-80-80c0-44.183,35.817-80,80-80c44.183,0,80,35.817,80,80S429.166,176.569,384.983,176.569z"/>
	</g>
</g>
<g>
</g>
<g>
</g>
<g>
</g>
<g>
</g>
<g>
</g>
<g>
</g>
<g>
</g>
<g>
</g>
<g>
</g>
<g>
</g>
<g>
</g>
<g>
</g>
<g>
</g>
<g>
</g>
<g>
</g>
</svg>
