<svg height="512" viewBox="0 0 60 60" width="512" xmlns="http://www.w3.org/2000/svg"><g id="Page-1" fill="none" fill-rule="evenodd"><g id="036---Spare-Tyre-Swap" fill="rgb(0,0,0)" fill-rule="nonzero"><path id="Shape" d="m57.44 53.51c3.3661445-5.8467886 3.3661445-13.0432114 0-18.89-.0030931-.0332616-.0030931-.0667384 0-.1l-.09-.09c-1.6432013-2.802468-3.977532-5.1367987-6.78-6.78-.0250012-.0318091-.0554791-.0589005-.09-.08h-.09c-4.0997473-2.3499468-8.9359323-3.064302-13.54-2 1.9310081-5.2624677 1.4330485-11.1098315-1.36-15.97-.0030931-.03326158-.0030931-.06673842 0-.1l-.09-.09c-1.6432013-2.80246798-3.977532-5.13679869-6.78-6.78-.0250012-.03180905-.0554791-.05890051-.09-.08h-.09c-5.8267711-3.34749696-12.9932289-3.34749696-18.82 0h-.09c-.03452086.02109949-.06499875.04819095-.09.08-2.8134593 1.63913347-5.15846111 3.97380488-6.81 6.78l-.09.09c.00309306.03326158.00309306.06673842 0 .1-3.34596943 5.8200372-3.34596943 12.9799628 0 18.8.00309306.0332616.00309306.0667384 0 .1.03770546.0576695.08127023.1112877.13.16 1.64149376 2.7718852 3.96081975 5.0808878 6.74 6.71.02500125.0318091.05547914.0589005.09.08.04132077.0241.08485241.0441915.13.06 2.8526337 1.6331941 6.0829285 2.4916182 9.37 2.49 1.3995424-.006463 2.7942947-.1640432 4.16-.47-.7648325 2.0714808-1.1575389 4.2618343-1.16 6.47.0000767 3.3313045.8760244 6.6040383 2.54 9.49.969347 1.6821064 2.1939255 3.2035524 3.63 4.51h-3.17c-.5522847 0-1 .4477153-1 1s.4477153 1 1 1h32c.5522847 0 1-.4477153 1-1s-.4477153-1-1-1h-3.17c1.4273422-1.3018626 2.6450315-2.8163848 3.61-4.49zm-37.44-17.51v-1c0-.5522847-.4477153-1-1-1s-1 .4477153-1 1v1c-2.301023-.1328111-4.5505157-.7351714-6.61-1.77l.48-.82c.2761424-.4804877.1104877-1.0938576-.37-1.37-.4804877-.2761423-1.0938576-.1104877-1.37.37l-.48.83c-1.92199165-1.2719342-3.56806579-2.9180083-4.84-4.84l.83-.48c.48048771-.2761424.64614233-.8895123.36999997-1.37-.27614237-.4804877-.88951224-.6461423-1.36999997-.37l-.82.48c-1.04142754-2.0747689-1.64396682-4.3419506-1.77-6.66h.95c.55228475 0 1-.4477153 1-1s-.44771525-1-1-1h-1c.13281105-2.301023.73517142-4.5505157 1.77-6.61l.82.48c.48048773.2761424 1.09385763.1104877 1.37-.37s.11048773-1.0938576-.37-1.37l-.83-.48c1.28653849-1.92691159 2.94996813-3.57333275 4.89-4.84l.48.83c.2761424.48048773.8895123.64614237 1.37.37s.6461424-.88951227.37-1.37l-.48-.82c2.0594843-1.03482858 4.308977-1.63718895 6.61-1.77v.95c0 .55228475.4477153 1 1 1s1-.44771525 1-1v-1c2.301023.13281105 4.5505157.73517142 6.61 1.77l-.48.82c-.2761423.48048773-.1104877 1.0938576.37 1.36999997.4804877.27614236 1.0938576.11048774 1.37-.36999997l.48-.83c1.9219917 1.27193421 3.5680658 2.91800835 4.84 4.84l-.83.48c-.4804877.2761424-.6461423.8895123-.37 1.37.2761424.4804877.8895123.6461424 1.37.37l.82-.48c1.058775 2.0710004 1.678385 4.3383643 1.82 6.66h-1c-.5522847 0-1 .4477153-1 1s.4477153 1 1 1h.94c-.1113633 2.1560803-.6447763 4.2693475-1.57 6.22-.9582969.3582633-1.8876915.7895291-2.78 1.29h-.09c-.0345209.0210995-.0649988.0481909-.09.08-2.802468 1.6432013-5.1367987 3.977532-6.78 6.78l-.09.09c.0030931.0332616.0030931.0667384 0 .1-.11.19-.22.38-.32.58-1.3637694.4671739-2.7821716.7562322-4.22.86zm11.38 22c-1.8126743-1.239635-3.3680005-2.8187326-4.58-4.65l.84-.48c.4804877-.2761424.6461424-.8895123.37-1.37s-.8895123-.6461424-1.37-.37l-.84.49c-1.0436422-2.0614144-1.6561113-4.3139396-1.8-6.62h1c.5522847 0 1-.4477153 1-1s-.4477153-1-1-1h-.95c.1328111-2.301023.7351714-4.5505157 1.77-6.61l.82.48c.4804877.2761424 1.0938576.1104877 1.37-.37s.1104877-1.0938576-.37-1.37l-.83-.48c1.2719342-1.9219917 2.9180083-3.5680658 4.84-4.84l.48.83c.2761424.4804877.8895123.6461424 1.37.37s.6461424-.8895123.37-1.37l-.48-.82c2.0594843-1.0348286 4.308977-1.6371889 6.61-1.77v.95c0 .5522847.4477153 1 1 1s1-.4477153 1-1v-.95c2.301023.1328111 4.5505157.7351714 6.61 1.77l-.48.82c-.2761424.4804877-.1104877 1.0938576.37 1.37s1.0938576.1104877 1.37-.37l.48-.83c1.9219917 1.2719342 3.5680658 2.9180083 4.84 4.84l-.83.48c-.4804877.2761424-.6461424.8895123-.37 1.37s.8895123.6461424 1.37.37l.82-.48c1.0521777 2.0557395 1.6716037 4.3054129 1.82 6.61h-1c-.5522847 0-1 .4477153-1 1s.4477153 1 1 1h1c-.1345298 2.3039351-.7367626 4.5563538-1.77 6.62l-.84-.49c-.3108211-.1786328-.693331-.1778753-1.0034421.0019873-.3101111.1798625-.50071.5115046-.5.87.00071.3584953.192621.6893799.5034421.8680127l.84.48c-1.2208217 1.8340894-2.7865259 3.4133789-4.61 4.65z"/><path id="Shape" d="m41 32c-6.627417 0-12 5.372583-12 12s5.372583 12 12 12 12-5.372583 12-12-5.372583-12-12-12zm9.15 8-5.79 1.88c-.5380692-.8578087-1.3814508-1.479624-2.36-1.74v-6.09c3.5915348.366765 6.706542 2.6409114 8.15 5.95zm-11.15 4c0-1.1045695.8954305-2 2-2s2 .8954305 2 2-.8954305 2-2 2-2-.8954305-2-2zm1-10v6.09c-.9753197.2554225-1.818211.8697331-2.36 1.72l-5.79-1.81c1.443458-3.3090886 4.5584652-5.583235 8.15-5.95zm-9 10c-.0003571-.712912.0767623-1.4237516.23-2.12l5.77 1.88v.24c.0079535.9255314.3366263 1.8196626.93 2.53l-3.58 4.92c-2.1262577-1.8932416-3.3447477-4.6030177-3.35-7.45zm5 8.63 3.57-4.92c.9349278.3866856 1.9850722.3866856 2.92 0l3.51 4.92c-3.1046363 1.8264328-6.9553637 1.8264328-10.06 0zm11.68-1.18-3.58-4.92c.582571-.7144304.9004965-1.6081542.9-2.53 0-.08 0-.16 0-.24l5.79-1.88c.1465164.6969843.2169289 1.4078159.21 2.12-.0052523 2.8469823-1.2237423 5.5567584-3.35 7.45z"/><path id="Shape" d="m31 19c0-6.627417-5.372583-12-12-12s-12 5.372583-12 12 5.372583 12 12 12c3.1825979 0 6.2348448-1.2642821 8.4852814-3.5147186 2.2504365-2.2504366 3.5147186-5.3026835 3.5147186-8.4852814zm-5.35 7.45-3.58-4.92c.5933737-.7103374.9220465-1.6044686.93-2.53 0-.08 0-.16 0-.24l5.79-1.88c.1465164.6969843.2169289 1.4078159.21 2.12-.0052523 2.8469823-1.2237423 5.5567584-3.35 7.45zm-8.65-7.45c0-1.1045695.8954305-2 2-2s2 .8954305 2 2-.8954305 2-2 2-2-.8954305-2-2zm11.15-4-5.79 1.88c-.5380692-.8578087-1.3814508-1.479624-2.36-1.74v-6.09c3.5915348.36676497 6.706542 2.6409114 8.15 5.95zm-10.15-5.95v6.09c-.9753197.2554225-1.818211.8697331-2.36 1.72l-5.79-1.86c1.443458-3.3090886 4.5584652-5.58323503 8.15-5.95zm-9 9.95c-.00035714-.712912.07676226-1.4237516.23-2.12l5.77 1.88v.24c.0079535.9255314.3366263 1.8196626.93 2.53l-3.58 4.92c-2.1262577-1.8932416-3.34474767-4.6030177-3.35-7.45zm5 8.63 3.57-4.92c.9349278.3866856 1.9850722.3866856 2.92 0l3.51 4.92c-3.1046363 1.8264328-6.9553637 1.8264328-10.06 0z"/><path id="Shape" d="m45 8h-2c-.5522847 0-1 .44771525-1 1s.4477153 1 1 1h2c3.8659932 0 7 3.1340068 7 7v1.59l-1.29-1.3c-.2536586-.2536586-.623374-.3527235-.969878-.259878-.3465041.0928454-.6171546.3634959-.71.71-.0928455.346504.0062194.7162194.259878.969878l3 3c.1877666.1893127.4433625.2957983.71.2957983s.5222334-.1064856.71-.2957983l3-3c.3921221-.3921222.3921221-1.0278778 0-1.42-.3921222-.3921221-1.0278778-.3921221-1.42 0l-1.29 1.3v-1.59c0-4.9705627-4.0294373-9-9-9z"/><path id="Shape" d="m17 50h-2c-3.8659932 0-7-3.1340068-7-7v-1.59l1.29 1.3c.1877666.1893127.44336246.2957983.71.2957983.2666375 0 .5222334-.1064856.71-.2957983.1893127-.1877666.2957983-.4433625.2957983-.71s-.1064856-.5222334-.2957983-.71l-3-3c-.1877666-.1893127-.44336246-.2957983-.71-.2957983s-.5222334.1064856-.71.2957983l-3 3c-.39212214.3921222-.39212212 1.0278778.00000004 1.42.39212215.3921221 1.02787778.3921221 1.41999996 0l1.29-1.3v1.59c0 4.9705627 4.0294373 9 9 9h2c.5522847 0 1-.4477153 1-1s-.4477153-1-1-1z"/></g></g></svg>